<svg width="140" height="62" viewBox="0 0 140 62" fill="none" xmlns="http://www.w3.org/2000/svg">
<g filter="url(#filter0_di)">
<path d="M44.3191 16.36C43.0231 13.864 41.2231 11.992 38.9191 10.744C36.6151 9.448 33.9511 8.8 30.9271 8.8C27.6151 8.8 24.6631 9.544 22.0711 11.032C19.4791 12.52 17.4391 14.632 15.9511 17.368C14.5111 20.104 13.7911 23.272 13.7911 26.872C13.7911 30.472 14.5111 33.664 15.9511 36.448C17.4391 39.184 19.4791 41.296 22.0711 42.784C24.6631 44.272 27.6151 45.016 30.9271 45.016C35.3911 45.016 39.0151 43.768 41.7991 41.272C44.5831 38.776 46.2871 35.392 46.9111 31.12H28.1191V24.568H55.6951V30.976C55.1671 34.864 53.7751 38.44 51.5191 41.704C49.3111 44.968 46.4071 47.584 42.8071 49.552C39.2551 51.472 35.2951 52.432 30.9271 52.432C26.2231 52.432 21.9271 51.352 18.0391 49.192C14.1511 46.984 11.0551 43.936 8.75113 40.048C6.49513 36.16 5.36713 31.768 5.36713 26.872C5.36713 21.976 6.49513 17.584 8.75113 13.696C11.0551 9.808 14.1511 6.784 18.0391 4.624C21.9751 2.416 26.2711 1.312 30.9271 1.312C36.2551 1.312 40.9831 2.632 45.1111 5.272C49.2871 7.864 52.3111 11.56 54.1831 16.36H44.3191ZM67.1026 52.504C65.6146 52.504 64.3666 52 63.3586 50.992C62.3506 49.984 61.8466 48.736 61.8466 47.248C61.8466 45.76 62.3506 44.512 63.3586 43.504C64.3666 42.496 65.6146 41.992 67.1026 41.992C68.5426 41.992 69.7666 42.496 70.7746 43.504C71.7826 44.512 72.2866 45.76 72.2866 47.248C72.2866 48.736 71.7826 49.984 70.7746 50.992C69.7666 52 68.5426 52.504 67.1026 52.504ZM107.942 26.296C110.63 26.776 112.91 28.192 114.782 30.544C116.654 32.896 117.59 35.56 117.59 38.536C117.59 41.08 116.918 43.384 115.574 45.448C114.278 47.464 112.382 49.072 109.886 50.272C107.39 51.424 104.486 52 101.174 52H81.1578V1.96H100.238C103.646 1.96 106.574 2.536 109.022 3.688C111.47 4.84 113.318 6.4 114.566 8.368C115.814 10.288 116.438 12.448 116.438 14.848C116.438 17.728 115.67 20.128 114.134 22.048C112.598 23.968 110.534 25.384 107.942 26.296ZM89.3658 22.984H99.5178C102.206 22.984 104.294 22.384 105.782 21.184C107.318 19.936 108.086 18.16 108.086 15.856C108.086 13.6 107.318 11.848 105.782 10.6C104.294 9.304 102.206 8.656 99.5178 8.656H89.3658V22.984ZM100.454 45.304C103.238 45.304 105.422 44.632 107.006 43.288C108.59 41.944 109.382 40.072 109.382 37.672C109.382 35.224 108.542 33.28 106.862 31.84C105.182 30.4 102.95 29.68 100.166 29.68H89.3658V45.304H100.454ZM129.821 52.504C128.333 52.504 127.085 52 126.077 50.992C125.069 49.984 124.565 48.736 124.565 47.248C124.565 45.76 125.069 44.512 126.077 43.504C127.085 42.496 128.333 41.992 129.821 41.992C131.261 41.992 132.485 42.496 133.493 43.504C134.501 44.512 135.005 45.76 135.005 47.248C135.005 48.736 134.501 49.984 133.493 50.992C132.485 52 131.261 52.504 129.821 52.504Z" fill="#DB5F29"/>
<path d="M44.3191 16.36L43.8754 16.5904L44.0154 16.86H44.3191V16.36ZM38.9191 10.744L38.674 11.1798L38.681 11.1836L38.9191 10.744ZM22.0711 11.032L22.3201 11.4656L22.3201 11.4656L22.0711 11.032ZM15.9511 17.368L15.5118 17.1291L15.5087 17.1351L15.9511 17.368ZM15.9511 36.448L15.5069 36.6778L15.5119 36.6869L15.9511 36.448ZM22.0711 42.784L22.3201 42.3504L22.3201 42.3504L22.0711 42.784ZM41.7991 41.272L42.1329 41.6443L42.1329 41.6443L41.7991 41.272ZM46.9111 31.12L47.4059 31.1923L47.4895 30.62H46.9111V31.12ZM28.1191 31.12H27.6191V31.62H28.1191V31.12ZM28.1191 24.568V24.068H27.6191V24.568H28.1191ZM55.6951 24.568H56.1951V24.068H55.6951V24.568ZM55.6951 30.976L56.1906 31.0433L56.1951 31.0098V30.976H55.6951ZM51.5191 41.704L51.1078 41.4197L51.105 41.4238L51.5191 41.704ZM42.8071 49.552L43.0449 49.9919L43.047 49.9907L42.8071 49.552ZM18.0391 49.192L17.7922 49.6268L17.7963 49.6291L18.0391 49.192ZM8.75113 40.048L8.31864 40.2989L8.32098 40.3029L8.75113 40.048ZM8.75113 13.696L8.32096 13.4411L8.31866 13.4451L8.75113 13.696ZM18.0391 4.624L18.2819 5.06108L18.2838 5.06007L18.0391 4.624ZM45.1111 5.272L44.8417 5.69326L44.8474 5.69682L45.1111 5.272ZM54.1831 16.36V16.86H54.9148L54.649 16.1783L54.1831 16.36ZM44.7629 16.1296C43.4243 13.5517 41.5557 11.6035 39.1573 10.3044L38.681 11.1836C40.8905 12.3805 42.6219 14.1763 43.8754 16.5904L44.7629 16.1296ZM39.1643 10.3082C36.7752 8.96437 34.0245 8.3 30.9271 8.3V9.3C33.8778 9.3 36.455 9.93163 38.674 11.1798L39.1643 10.3082ZM30.9271 8.3C27.5375 8.3 24.4979 9.0623 21.8222 10.5984L22.3201 11.4656C24.8283 10.0257 27.6928 9.3 30.9271 9.3V8.3ZM21.8222 10.5984C19.1465 12.1344 17.0421 14.3154 15.5119 17.1291L16.3904 17.6069C17.8361 14.9486 19.8118 12.9056 22.3201 11.4656L21.8222 10.5984ZM15.5087 17.1351C14.0251 19.9539 13.2911 23.2042 13.2911 26.872H14.2911C14.2911 23.3398 14.9972 20.2541 16.3936 17.6009L15.5087 17.1351ZM13.2911 26.872C13.2911 30.54 14.0252 33.8128 15.507 36.6777L16.3952 36.2183C14.9971 33.5152 14.2911 30.404 14.2911 26.872H13.2911ZM15.5119 36.6869C17.0421 39.5006 19.1465 41.6816 21.8222 43.2176L22.3201 42.3504C19.8118 40.9104 17.8361 38.8674 16.3904 36.2091L15.5119 36.6869ZM21.8222 43.2176C24.4979 44.7537 27.5375 45.516 30.9271 45.516V44.516C27.6928 44.516 24.8283 43.7903 22.3201 42.3504L21.8222 43.2176ZM30.9271 45.516C35.4891 45.516 39.24 44.2379 42.1329 41.6443L41.4654 40.8997C38.7902 43.2981 35.2931 44.516 30.9271 44.516V45.516ZM42.1329 41.6443C45.0172 39.0583 46.7677 35.5611 47.4059 31.1923L46.4164 31.0477C45.8065 35.2229 44.149 38.4937 41.4654 40.8997L42.1329 41.6443ZM46.9111 30.62H28.1191V31.62H46.9111V30.62ZM28.6191 31.12V24.568H27.6191V31.12H28.6191ZM28.1191 25.068H55.6951V24.068H28.1191V25.068ZM55.1951 24.568V30.976H56.1951V24.568H55.1951ZM55.1997 30.9087C54.6824 34.7179 53.3196 38.2197 51.1078 41.4197L51.9304 41.9883C54.2306 38.6603 55.6519 35.0101 56.1906 31.0433L55.1997 30.9087ZM51.105 41.4238C48.9435 44.6191 46.1004 47.1819 42.5673 49.1133L43.047 49.9907C46.7139 47.9861 49.6788 45.3169 51.9333 41.9842L51.105 41.4238ZM42.5694 49.1121C39.0963 50.9895 35.2191 51.932 30.9271 51.932V52.932C35.3712 52.932 39.414 51.9545 43.0449 49.9919L42.5694 49.1121ZM30.9271 51.932C26.303 51.932 22.0914 50.8713 18.2819 48.7549L17.7963 49.6291C21.7629 51.8327 26.1432 52.932 30.9271 52.932V51.932ZM18.286 48.7572C14.4746 46.5927 11.4414 43.6071 9.18127 39.7931L8.32098 40.3029C10.6689 44.2649 13.8277 47.3753 17.7922 49.6268L18.286 48.7572ZM9.18359 39.7971C6.97572 35.992 5.86713 31.688 5.86713 26.872H4.86713C4.86713 31.848 6.01453 36.328 8.31866 40.2989L9.18359 39.7971ZM5.86713 26.872C5.86713 22.056 6.97572 17.752 9.18359 13.9469L8.31866 13.4451C6.01453 17.416 4.86713 21.896 4.86713 26.872H5.86713ZM9.18127 13.9509C11.4408 10.1379 14.4727 7.1773 18.2819 5.06107L17.7963 4.18692C13.8295 6.39069 10.6694 9.47813 8.32098 13.4411L9.18127 13.9509ZM18.2838 5.06007C22.1426 2.89535 26.354 1.812 30.9271 1.812V0.811996C26.1883 0.811996 21.8076 1.93665 17.7945 4.18792L18.2838 5.06007ZM30.9271 1.812C36.1683 1.812 40.8012 3.10914 44.8417 5.69322L45.3805 4.85077C41.1651 2.15485 36.3419 0.811996 30.9271 0.811996V1.812ZM44.8474 5.69682C48.9269 8.22889 51.8826 11.8373 53.7173 16.5417L54.649 16.1783C52.7397 11.2827 49.6474 7.4991 45.3748 4.84718L44.8474 5.69682ZM54.1831 15.86H44.3191V16.86H54.1831V15.86ZM63.3586 50.992L63.7122 50.6384L63.7122 50.6384L63.3586 50.992ZM63.3586 43.504L63.7122 43.8576L63.7122 43.8576L63.3586 43.504ZM70.7746 50.992L70.4211 50.6384L70.7746 50.992ZM67.1026 52.004C65.7408 52.004 64.6219 51.5482 63.7122 50.6384L63.0051 51.3456C64.1113 52.4518 65.4885 53.004 67.1026 53.004V52.004ZM63.7122 50.6384C62.8024 49.7287 62.3466 48.6099 62.3466 47.248H61.3466C61.3466 48.8621 61.8988 50.2393 63.0051 51.3456L63.7122 50.6384ZM62.3466 47.248C62.3466 45.8861 62.8024 44.7673 63.7122 43.8576L63.0051 43.1504C61.8988 44.2567 61.3466 45.6339 61.3466 47.248H62.3466ZM63.7122 43.8576C64.6219 42.9478 65.7408 42.492 67.1026 42.492V41.492C65.4885 41.492 64.1113 42.0442 63.0051 43.1504L63.7122 43.8576ZM67.1026 42.492C68.4115 42.492 69.5079 42.9444 70.4211 43.8576L71.1282 43.1504C70.0253 42.0476 68.6737 41.492 67.1026 41.492V42.492ZM70.4211 43.8576C71.3308 44.7673 71.7866 45.8861 71.7866 47.248H72.7866C72.7866 45.6339 72.2344 44.2567 71.1282 43.1504L70.4211 43.8576ZM71.7866 47.248C71.7866 48.6099 71.3308 49.7287 70.4211 50.6384L71.1282 51.3456C72.2344 50.2393 72.7866 48.8621 72.7866 47.248H71.7866ZM70.4211 50.6384C69.5079 51.5516 68.4115 52.004 67.1026 52.004V53.004C68.6737 53.004 70.0253 52.4484 71.1282 51.3456L70.4211 50.6384ZM107.942 26.296L107.776 25.8243L105.985 26.4545L107.854 26.7882L107.942 26.296ZM114.782 30.544L115.173 30.2326L115.173 30.2326L114.782 30.544ZM115.574 45.448L115.155 45.1752L115.153 45.1776L115.574 45.448ZM109.886 50.272L110.095 50.726L110.102 50.7226L109.886 50.272ZM81.1578 52H80.6578V52.5H81.1578V52ZM81.1578 1.96V1.46H80.6578V1.96H81.1578ZM109.022 3.688L108.809 4.14041L108.809 4.14041L109.022 3.688ZM114.566 8.368L114.144 8.63579L114.147 8.64049L114.566 8.368ZM114.134 22.048L114.524 22.3603L114.524 22.3603L114.134 22.048ZM89.3658 22.984H88.8658V23.484H89.3658V22.984ZM105.782 21.184L106.096 21.5732L106.097 21.5721L105.782 21.184ZM105.782 10.6L105.453 10.977L105.46 10.9827L105.467 10.9881L105.782 10.6ZM89.3658 8.656V8.156H88.8658V8.656H89.3658ZM107.006 43.288L106.682 42.9067L106.682 42.9067L107.006 43.288ZM89.3658 29.68V29.18H88.8658V29.68H89.3658ZM89.3658 45.304H88.8658V45.804H89.3658V45.304ZM107.854 26.7882C110.41 27.2446 112.586 28.5882 114.391 30.8554L115.173 30.2326C113.234 27.7958 110.85 26.3074 108.03 25.8038L107.854 26.7882ZM114.391 30.8554C116.193 33.1198 117.09 35.6743 117.09 38.536H118.09C118.09 35.4457 117.115 32.6722 115.173 30.2326L114.391 30.8554ZM117.09 38.536C117.09 40.9865 116.444 43.1951 115.155 45.1752L115.993 45.7208C117.391 43.5729 118.09 41.1735 118.09 38.536H117.09ZM115.153 45.1776C113.915 47.1044 112.095 48.6551 109.669 49.8214L110.102 50.7226C112.669 49.4889 114.641 47.8236 115.994 45.7184L115.153 45.1776ZM109.676 49.818C107.258 50.9341 104.428 51.5 101.174 51.5V52.5C104.544 52.5 107.522 51.9139 110.095 50.726L109.676 49.818ZM101.174 51.5H81.1578V52.5H101.174V51.5ZM81.6578 52V1.96H80.6578V52H81.6578ZM81.1578 2.46H100.238V1.46H81.1578V2.46ZM100.238 2.46C103.591 2.46 106.442 3.02679 108.809 4.14041L109.235 3.23559C106.705 2.04521 103.701 1.46 100.238 1.46V2.46ZM108.809 4.14041C111.185 5.25862 112.954 6.76017 114.144 8.63577L114.988 8.10023C113.681 6.03983 111.755 4.42137 109.235 3.23559L108.809 4.14041ZM114.147 8.64049C115.339 10.4754 115.938 12.5398 115.938 14.848H116.938C116.938 12.3562 116.288 10.1006 114.985 8.09551L114.147 8.64049ZM115.938 14.848C115.938 17.6348 115.197 19.919 113.743 21.7357L114.524 22.3603C116.143 20.337 116.938 17.8212 116.938 14.848H115.938ZM113.743 21.7357C112.273 23.5742 110.29 24.9396 107.776 25.8243L108.108 26.7677C110.777 25.8284 112.923 24.3618 114.524 22.3603L113.743 21.7357ZM89.3658 23.484H99.5178V22.484H89.3658V23.484ZM99.5178 23.484C102.274 23.484 104.489 22.8691 106.096 21.5732L105.468 20.7948C104.099 21.8989 102.137 22.484 99.5178 22.484V23.484ZM106.097 21.5721C107.77 20.2129 108.586 18.2829 108.586 15.856H107.586C107.586 18.0371 106.866 19.659 105.467 20.7959L106.097 21.5721ZM108.586 15.856C108.586 13.4732 107.767 11.5689 106.097 10.2119L105.467 10.9881C106.868 12.1271 107.586 13.7268 107.586 15.856H108.586ZM106.11 10.223C104.503 8.82292 102.283 8.156 99.5178 8.156V9.156C102.129 9.156 104.085 9.78507 105.453 10.977L106.11 10.223ZM99.5178 8.156H89.3658V9.156H99.5178V8.156ZM88.8658 8.656V22.984H89.8658V8.656H88.8658ZM100.454 45.804C103.316 45.804 105.628 45.1126 107.329 43.6693L106.682 42.9067C105.215 44.1514 103.16 44.804 100.454 44.804V45.804ZM107.329 43.6693C109.043 42.215 109.882 40.1935 109.882 37.672H108.882C108.882 39.9505 108.136 41.673 106.682 42.9067L107.329 43.6693ZM109.882 37.672C109.882 35.0955 108.991 33.0062 107.187 31.4604L106.536 32.2196C108.093 33.5538 108.882 35.3525 108.882 37.672H109.882ZM107.187 31.4604C105.395 29.9243 103.037 29.18 100.166 29.18V30.18C102.862 30.18 104.969 30.8757 106.536 32.2196L107.187 31.4604ZM100.166 29.18H89.3658V30.18H100.166V29.18ZM88.8658 29.68V45.304H89.8658V29.68H88.8658ZM89.3658 45.804H100.454V44.804H89.3658V45.804ZM126.077 50.992L126.431 50.6384L126.431 50.6384L126.077 50.992ZM126.077 43.504L126.431 43.8576L126.431 43.8576L126.077 43.504ZM133.493 50.992L133.14 50.6384L133.493 50.992ZM129.821 52.004C128.46 52.004 127.341 51.5482 126.431 50.6384L125.724 51.3456C126.83 52.4518 128.207 53.004 129.821 53.004V52.004ZM126.431 50.6384C125.521 49.7287 125.065 48.6099 125.065 47.248H124.065C124.065 48.8621 124.618 50.2393 125.724 51.3456L126.431 50.6384ZM125.065 47.248C125.065 45.8861 125.521 44.7673 126.431 43.8576L125.724 43.1504C124.618 44.2567 124.065 45.6339 124.065 47.248H125.065ZM126.431 43.8576C127.341 42.9478 128.46 42.492 129.821 42.492V41.492C128.207 41.492 126.83 42.0442 125.724 43.1504L126.431 43.8576ZM129.821 42.492C131.13 42.492 132.227 42.9444 133.14 43.8576L133.847 43.1504C132.744 42.0476 131.392 41.492 129.821 41.492V42.492ZM133.14 43.8576C134.05 44.7673 134.505 45.8861 134.505 47.248H135.505C135.505 45.6339 134.953 44.2567 133.847 43.1504L133.14 43.8576ZM134.505 47.248C134.505 48.6099 134.05 49.7287 133.14 50.6384L133.847 51.3456C134.953 50.2393 135.505 48.8621 135.505 47.248H134.505ZM133.14 50.6384C132.227 51.5516 131.13 52.004 129.821 52.004V53.004C131.392 53.004 132.744 52.4484 133.847 51.3456L133.14 50.6384Z" fill="#DB5F29"/>
</g>
<defs>
<filter id="filter0_di" x="0.867126" y="0.812012" width="138.638" height="60.192" filterUnits="userSpaceOnUse" color-interpolation-filters="sRGB">
<feFlood flood-opacity="0" result="BackgroundImageFix"/>
<feColorMatrix in="SourceAlpha" type="matrix" values="0 0 0 0 0 0 0 0 0 0 0 0 0 0 0 0 0 0 127 0" result="hardAlpha"/>
<feOffset dy="4"/>
<feGaussianBlur stdDeviation="2"/>
<feComposite in2="hardAlpha" operator="out"/>
<feColorMatrix type="matrix" values="0 0 0 0 0 0 0 0 0 0 0 0 0 0 0 0 0 0 0.25 0"/>
<feBlend mode="normal" in2="BackgroundImageFix" result="effect1_dropShadow"/>
<feBlend mode="normal" in="SourceGraphic" in2="effect1_dropShadow" result="shape"/>
<feColorMatrix in="SourceAlpha" type="matrix" values="0 0 0 0 0 0 0 0 0 0 0 0 0 0 0 0 0 0 127 0" result="hardAlpha"/>
<feOffset dy="4"/>
<feGaussianBlur stdDeviation="2"/>
<feComposite in2="hardAlpha" operator="arithmetic" k2="-1" k3="1"/>
<feColorMatrix type="matrix" values="0 0 0 0 0 0 0 0 0 0 0 0 0 0 0 0 0 0 0.25 0"/>
<feBlend mode="normal" in2="shape" result="effect2_innerShadow"/>
</filter>
</defs>
</svg>
