<svg width="139" height="60" viewBox="0 0 139 60" fill="none" xmlns="http://www.w3.org/2000/svg">
<g filter="url(#filter0_di)">
<path d="M43.3191 15.36C42.0231 12.864 40.2231 10.992 37.9191 9.744C35.6151 8.448 32.9511 7.8 29.9271 7.8C26.6151 7.8 23.6631 8.544 21.0711 10.032C18.4791 11.52 16.4391 13.632 14.9511 16.368C13.5111 19.104 12.7911 22.272 12.7911 25.872C12.7911 29.472 13.5111 32.664 14.9511 35.448C16.4391 38.184 18.4791 40.296 21.0711 41.784C23.6631 43.272 26.6151 44.016 29.9271 44.016C34.3911 44.016 38.0151 42.768 40.7991 40.272C43.5831 37.776 45.2871 34.392 45.9111 30.12H27.1191V23.568H54.6951V29.976C54.1671 33.864 52.7751 37.44 50.5191 40.704C48.3111 43.968 45.4071 46.584 41.8071 48.552C38.2551 50.472 34.2951 51.432 29.9271 51.432C25.2231 51.432 20.9271 50.352 17.0391 48.192C13.1511 45.984 10.0551 42.936 7.75113 39.048C5.49513 35.16 4.36713 30.768 4.36713 25.872C4.36713 20.976 5.49513 16.584 7.75113 12.696C10.0551 8.808 13.1511 5.784 17.0391 3.624C20.9751 1.416 25.2711 0.311996 29.9271 0.311996C35.2551 0.311996 39.9831 1.632 44.1111 4.272C48.2871 6.864 51.3111 10.56 53.1831 15.36H43.3191ZM66.1026 51.504C64.6146 51.504 63.3666 51 62.3586 49.992C61.3506 48.984 60.8466 47.736 60.8466 46.248C60.8466 44.76 61.3506 43.512 62.3586 42.504C63.3666 41.496 64.6146 40.992 66.1026 40.992C67.5426 40.992 68.7666 41.496 69.7746 42.504C70.7826 43.512 71.2866 44.76 71.2866 46.248C71.2866 47.736 70.7826 48.984 69.7746 49.992C68.7666 51 67.5426 51.504 66.1026 51.504ZM106.942 25.296C109.63 25.776 111.91 27.192 113.782 29.544C115.654 31.896 116.59 34.56 116.59 37.536C116.59 40.08 115.918 42.384 114.574 44.448C113.278 46.464 111.382 48.072 108.886 49.272C106.39 50.424 103.486 51 100.174 51H80.1578V0.959996H99.2378C102.646 0.959996 105.574 1.536 108.022 2.688C110.47 3.84 112.318 5.4 113.566 7.368C114.814 9.288 115.438 11.448 115.438 13.848C115.438 16.728 114.67 19.128 113.134 21.048C111.598 22.968 109.534 24.384 106.942 25.296ZM88.3658 21.984H98.5178C101.206 21.984 103.294 21.384 104.782 20.184C106.318 18.936 107.086 17.16 107.086 14.856C107.086 12.6 106.318 10.848 104.782 9.6C103.294 8.304 101.206 7.656 98.5178 7.656H88.3658V21.984ZM99.4538 44.304C102.238 44.304 104.422 43.632 106.006 42.288C107.59 40.944 108.382 39.072 108.382 36.672C108.382 34.224 107.542 32.28 105.862 30.84C104.182 29.4 101.95 28.68 99.1658 28.68H88.3658V44.304H99.4538ZM128.821 51.504C127.333 51.504 126.085 51 125.077 49.992C124.069 48.984 123.565 47.736 123.565 46.248C123.565 44.76 124.069 43.512 125.077 42.504C126.085 41.496 127.333 40.992 128.821 40.992C130.261 40.992 131.485 41.496 132.493 42.504C133.501 43.512 134.005 44.76 134.005 46.248C134.005 47.736 133.501 48.984 132.493 49.992C131.485 51 130.261 51.504 128.821 51.504Z" fill="#FF4D00"/>
</g>
<defs>
<filter id="filter0_di" x="0.367126" y="0.312012" width="137.638" height="59.192" filterUnits="userSpaceOnUse" color-interpolation-filters="sRGB">
<feFlood flood-opacity="0" result="BackgroundImageFix"/>
<feColorMatrix in="SourceAlpha" type="matrix" values="0 0 0 0 0 0 0 0 0 0 0 0 0 0 0 0 0 0 127 0" result="hardAlpha"/>
<feOffset dy="4"/>
<feGaussianBlur stdDeviation="2"/>
<feComposite in2="hardAlpha" operator="out"/>
<feColorMatrix type="matrix" values="0 0 0 0 0 0 0 0 0 0 0 0 0 0 0 0 0 0 0.25 0"/>
<feBlend mode="normal" in2="BackgroundImageFix" result="effect1_dropShadow"/>
<feBlend mode="normal" in="SourceGraphic" in2="effect1_dropShadow" result="shape"/>
<feColorMatrix in="SourceAlpha" type="matrix" values="0 0 0 0 0 0 0 0 0 0 0 0 0 0 0 0 0 0 127 0" result="hardAlpha"/>
<feOffset dy="4"/>
<feGaussianBlur stdDeviation="2"/>
<feComposite in2="hardAlpha" operator="arithmetic" k2="-1" k3="1"/>
<feColorMatrix type="matrix" values="0 0 0 0 0 0 0 0 0 0 0 0 0 0 0 0 0 0 0.25 0"/>
<feBlend mode="normal" in2="shape" result="effect2_innerShadow"/>
</filter>
</defs>
</svg>
